<?xml version="1.0" standalone="no"?>
<!DOCTYPE svg PUBLIC "-//W3C//DTD SVG 20010904//EN"
 "http://www.w3.org/TR/2001/REC-SVG-20010904/DTD/svg10.dtd">
<svg version="1.0" xmlns="http://www.w3.org/2000/svg"
 width="45.000000pt" height="45.000000pt" viewBox="0 0 225.000000 225.000000"
 preserveAspectRatio="xMidYMid meet">
<metadata>
Created by potrace 1.16, written by Peter Selinger 2001-2019
</metadata>
<g transform="translate(0.000000,225.000000) scale(0.100000,-0.100000)"
fill="#000000" stroke="none">
<path d="M124 2109 c-14 -16 -20 -40 -22 -99 l-4 -78 -34 -6 c-36 -7 -64 -38
-64 -72 0 -35 37 -74 71 -74 26 0 29 -3 29 -30 0 -27 -3 -30 -29 -30 -35 0
-71 -40 -71 -77 0 -31 42 -73 75 -73 20 0 25 -5 25 -25 0 -15 -6 -25 -15 -25
-29 0 -64 -23 -76 -51 -18 -45 3 -86 52 -101 31 -9 39 -16 39 -35 0 -18 -5
-23 -25 -23 -33 0 -75 -42 -75 -75 0 -33 42 -75 75 -75 21 0 25 -5 25 -30 0
-27 -3 -30 -29 -30 -41 0 -75 -43 -67 -85 7 -34 29 -54 69 -62 20 -4 27 -11
27 -29 0 -19 -5 -24 -25 -24 -33 0 -75 -42 -75 -73 0 -37 36 -77 71 -77 26 0
29 -3 29 -30 0 -27 -3 -30 -29 -30 -35 0 -71 -40 -71 -77 0 -31 42 -73 73 -73
24 0 25 -3 28 -79 7 -134 -67 -121 694 -121 650 0 652 0 671 21 18 20 19 48
22 650 l2 629 128 0 c108 0 132 -3 159 -20 58 -35 63 -57 63 -273 l0 -194 -47
-18 c-70 -27 -154 -115 -182 -190 -21 -56 -22 -71 -19 -324 3 -259 4 -267 28
-316 34 -71 108 -139 177 -165 80 -30 196 -25 268 12 61 32 129 103 158 166
21 45 22 61 22 317 l0 270 -33 67 c-38 77 -90 127 -168 159 l-53 22 -3 221
c-3 248 -7 263 -85 338 -66 64 -118 80 -274 86 l-137 5 -4 144 c-3 138 -4 146
-27 164 -22 18 -48 19 -671 19 -645 0 -647 0 -666 -21z m1206 -874 l0 -745
-535 0 -535 0 0 25 c0 20 5 25 25 25 33 0 75 42 75 73 0 37 -36 77 -71 77 -26
0 -29 3 -29 30 0 27 3 30 29 30 35 0 71 40 71 77 0 31 -42 73 -75 73 -20 0
-25 5 -25 24 0 18 7 25 30 29 38 8 70 40 70 71 0 37 -37 76 -71 76 -26 0 -29
3 -29 30 0 25 4 30 25 30 33 0 75 42 75 75 0 33 -42 75 -75 75 -20 0 -25 5
-25 23 0 19 8 26 39 35 49 15 70 56 52 101 -12 28 -47 51 -76 51 -9 0 -15 10
-15 25 0 20 5 25 25 25 33 0 75 42 75 73 0 37 -36 77 -71 77 -26 0 -29 3 -29
30 0 27 3 30 29 30 34 0 71 39 71 74 0 34 -28 65 -65 72 -28 5 -35 11 -35 30
l0 24 535 0 535 0 0 -745z m520 -350 l0 -105 -55 0 -55 0 0 40 c0 22 7 57 15
76 14 35 69 94 86 94 5 0 9 -47 9 -105z m190 67 c38 -37 60 -91 60 -144 0 -27
-1 -28 -60 -28 l-60 0 0 105 c0 71 4 105 11 105 6 0 28 -17 49 -38z m55 -443
c0 -109 -1 -118 -28 -157 -60 -91 -189 -110 -265 -39 -50 46 -62 88 -62 207
l0 110 178 -2 177 -3 0 -116z"/>
<path d="M537 1802 c-15 -16 -17 -49 -17 -260 l0 -241 26 -20 c26 -20 39 -21
295 -21 178 0 276 4 293 11 43 20 47 49 44 286 -3 201 -5 223 -22 242 -19 20
-27 21 -311 21 -270 0 -293 -1 -308 -18z m485 -262 l-3 -130 -175 0 -174 0 0
130 0 130 178 0 177 0 -3 -130z"/>
</g>
</svg>
